<svg width="25" height="25" viewBox="0 0 25 25" fill="none" xmlns="http://www.w3.org/2000/svg">
<g clip-path="url(#clip0_523_2882)">
<path d="M17.1874 3.125C15.3749 3.125 13.6353 3.96875 12.4999 5.30208C11.3645 3.96875 9.62492 3.125 7.81242 3.125C4.60409 3.125 2.08325 5.64583 2.08325 8.85417C2.08325 12.7917 5.62492 16 10.9895 20.875L12.4999 22.2396L14.0103 20.8646C19.3749 16 22.9166 12.7917 22.9166 8.85417C22.9166 5.64583 20.3958 3.125 17.1874 3.125ZM12.6041 19.3229L12.4999 19.4271L12.3958 19.3229C7.43742 14.8333 4.16659 11.8646 4.16659 8.85417C4.16659 6.77083 5.72909 5.20833 7.81242 5.20833C9.41659 5.20833 10.9791 6.23958 11.5312 7.66667H13.4791C14.0208 6.23958 15.5833 5.20833 17.1874 5.20833C19.2708 5.20833 20.8333 6.77083 20.8333 8.85417C20.8333 11.8646 17.5624 14.8333 12.6041 19.3229Z" fill="#DCCA87"/>
</g>
<defs>
<clipPath id="clip0_523_2882">
<rect width="25" height="25" fill="white"/>
</clipPath>
</defs>
</svg>
