<svg width="286" height="53" viewBox="0 0 286 53" fill="none" xmlns="http://www.w3.org/2000/svg">
<path d="M23.7578 52.768C19.0218 52.768 14.9044 51.8507 11.4058 50.016C7.94976 48.1813 5.30442 45.664 3.46976 42.464C1.63509 39.2213 0.717757 35.5947 0.717757 31.584C0.717757 27.7013 1.74176 24.224 3.78976 21.152C5.83776 18.0373 8.63242 15.6267 12.1738 13.92C15.7151 12.1707 19.6618 11.296 24.0138 11.296C26.0191 11.296 28.0671 11.488 30.1578 11.872C32.2484 12.2133 33.8911 12.64 35.0858 13.152C35.4271 13.3227 35.6404 13.4933 35.7258 13.664C35.8111 13.8347 35.8751 14.1547 35.9178 14.624L36.4298 23.008C36.4298 23.1787 36.3231 23.2853 36.1098 23.328C35.8964 23.3707 35.7471 23.328 35.6618 23.2C34.1684 19.9573 32.2058 17.44 29.7738 15.648C27.3418 13.8133 24.5258 12.896 21.3258 12.896C17.1871 12.896 13.9658 14.368 11.6618 17.312C9.35776 20.2133 8.20576 24.1813 8.20576 29.216C8.20576 33.6107 8.97376 37.4933 10.5098 40.864C12.0458 44.2347 14.1364 46.8373 16.7818 48.672C19.4698 50.5067 22.4991 51.424 25.8698 51.424C27.4058 51.424 28.5791 51.2107 29.3898 50.784C30.2004 50.3147 30.7551 49.568 31.0538 48.544C31.3951 47.4773 31.5658 45.9413 31.5658 43.936C31.5658 41.8453 31.3738 40.3307 30.9898 39.392C30.6058 38.4533 29.9018 37.8347 28.8778 37.536C27.8538 37.2373 26.2111 37.088 23.9498 37.088C23.6938 37.088 23.5658 36.9173 23.5658 36.576C23.5658 36.448 23.5871 36.3413 23.6298 36.256C23.7151 36.128 23.8004 36.064 23.8858 36.064C27.4271 36.2773 30.3711 36.384 32.7178 36.384C34.9364 36.384 37.2404 36.32 39.6298 36.192C39.8004 36.192 39.9071 36.3413 39.9498 36.64C39.9924 36.9387 39.9284 37.088 39.7578 37.088C39.0751 37.0453 38.6484 37.216 38.4778 37.6C38.3071 37.984 38.2218 38.8587 38.2218 40.224V44.576C38.2218 46.496 38.2858 47.84 38.4138 48.608C38.5418 49.376 38.6058 49.9093 38.6058 50.208C38.6058 50.464 38.5631 50.6347 38.4778 50.72C38.4351 50.8053 38.2858 50.8907 38.0298 50.976C32.5684 52.1707 27.8111 52.768 23.7578 52.768ZM78.1318 41.824C78.2171 41.7387 78.3238 41.696 78.4518 41.696C78.5798 41.696 78.7078 41.7387 78.8358 41.824C78.9638 41.8667 79.0064 41.9093 78.9638 41.952C78.5371 44.7253 78.3238 47.7547 78.3238 51.04C78.3238 51.3813 78.2598 51.6373 78.1318 51.808C78.0038 51.936 77.7478 52 77.3638 52H48.1798C48.0091 52 47.9238 51.872 47.9238 51.616C47.9238 51.36 47.9878 51.232 48.1158 51.232C49.3958 51.232 50.3131 51.1253 50.8678 50.912C51.4651 50.6987 51.8491 50.2933 52.0198 49.696C52.2331 49.0987 52.3398 48.1387 52.3398 46.816V17.184C52.3398 15.904 52.2331 14.9653 52.0198 14.368C51.8064 13.7707 51.4011 13.3653 50.8038 13.152C50.2064 12.896 49.3104 12.768 48.1158 12.768C47.9878 12.768 47.9024 12.64 47.8598 12.384C47.8598 12.128 47.9024 12 47.9878 12H75.5718C75.9131 12 76.0838 12.192 76.0838 12.576L76.2118 21.024C76.2118 21.152 76.0838 21.216 75.8278 21.216C75.6144 21.216 75.4864 21.1733 75.4438 21.088C74.7184 18.6987 73.3958 16.8213 71.4758 15.456C69.5984 14.048 67.3584 13.344 64.7558 13.344H63.5398C62.2171 13.344 61.2571 13.4507 60.6598 13.664C60.1051 13.8347 59.7424 14.176 59.5718 14.688C59.4011 15.2 59.2944 16.0533 59.2518 17.248V30.304H67.2518C69.4278 30.304 71.0278 29.92 72.0518 29.152C73.0758 28.384 73.5878 27.1467 73.5878 25.44C73.5878 25.2693 73.7371 25.184 74.0358 25.184C74.3344 25.184 74.4838 25.2907 74.4838 25.504L74.4198 29.024C74.3771 29.536 74.3558 30.2613 74.3558 31.2C74.3558 32.5653 74.3771 33.5893 74.4198 34.272L74.4838 37.728C74.4838 37.9413 74.3558 38.048 74.0998 38.048C73.9718 38.048 73.8438 38.0267 73.7158 37.984C73.6304 37.8987 73.5878 37.8133 73.5878 37.728C73.5878 35.8933 73.0118 34.5067 71.8598 33.568C70.7504 32.5867 69.1718 32.096 67.1238 32.096H59.2518V46.56C59.2518 48.2667 59.5078 49.376 60.0198 49.888C60.5744 50.4 61.7051 50.656 63.4118 50.656H65.2038C67.9771 50.656 70.5158 49.8667 72.8198 48.288C75.1238 46.6667 76.8944 44.512 78.1318 41.824ZM128.773 51.232C128.901 51.232 128.965 51.36 128.965 51.616C129.007 51.872 128.943 52 128.773 52H118.277C117.253 52 115.461 50.2933 112.901 46.88C110.383 43.424 107.333 38.24 103.749 31.328C102.554 31.6267 101.231 31.776 99.7808 31.776C99.5674 31.776 99.2901 31.7333 98.9488 31.648V46.816C98.9061 48.0533 98.9914 48.992 99.2048 49.632C99.4608 50.2293 99.8874 50.656 100.485 50.912C101.125 51.1253 102.085 51.232 103.365 51.232C103.535 51.232 103.621 51.36 103.621 51.616C103.663 51.872 103.599 52 103.429 52C101.978 52 100.869 51.9787 100.101 51.936L95.3648 51.872L90.5648 51.936C89.7114 51.9787 88.5594 52 87.1088 52C86.9381 52 86.8314 51.872 86.7888 51.616C86.7888 51.36 86.8741 51.232 87.0448 51.232C88.4528 51.232 89.4981 51.1253 90.1808 50.912C90.8634 50.656 91.3114 50.2293 91.5248 49.632C91.7808 48.992 91.9301 48.0533 91.9728 46.816V17.184C91.9728 15.904 91.8448 14.9653 91.5888 14.368C91.3754 13.7707 90.9488 13.3653 90.3088 13.152C89.6688 12.896 88.6874 12.768 87.3648 12.768C87.1941 12.768 87.1088 12.64 87.1088 12.384C87.1088 12.128 87.1941 12 87.3648 12L90.7568 12.064C92.6341 12.1493 94.1701 12.192 95.3648 12.192C96.8154 12.192 98.3941 12.1067 100.101 11.936C101.466 11.8507 102.362 11.808 102.789 11.808C107.098 11.808 110.319 12.512 112.453 13.92C114.629 15.328 115.717 17.2907 115.717 19.808C115.717 21.6427 115.098 23.4133 113.861 25.12C112.666 26.8267 111.066 28.256 109.061 29.408C112.389 34.912 115.205 39.2427 117.509 42.4C119.855 45.5147 121.903 47.776 123.653 49.184C125.445 50.5493 127.151 51.232 128.773 51.232ZM98.9488 29.856C99.4608 29.984 100.079 30.048 100.805 30.048C103.621 30.048 105.605 29.4293 106.757 28.192C107.951 26.9547 108.549 24.8853 108.549 21.984C108.549 18.9547 107.951 16.736 106.757 15.328C105.605 13.8773 104.175 13.152 102.469 13.152C101.317 13.152 100.527 13.2373 100.101 13.408C99.6741 13.536 99.3754 13.8773 99.2048 14.432C99.0768 14.944 98.9914 15.904 98.9488 17.312V29.856ZM133.99 52C133.905 52 133.862 51.872 133.862 51.616C133.862 51.36 133.905 51.232 133.99 51.232C135.313 51.232 136.252 51.1253 136.806 50.912C137.404 50.6987 137.809 50.2933 138.022 49.696C138.236 49.0987 138.342 48.1387 138.342 46.816V17.184C138.342 15.9467 138.214 15.0293 137.958 14.432C137.745 13.792 137.34 13.3653 136.742 13.152C136.145 12.896 135.228 12.768 133.99 12.768C133.905 12.768 133.841 12.64 133.798 12.384C133.798 12.128 133.862 12 133.99 12L137.19 12.064C139.068 12.1493 140.582 12.192 141.734 12.192C143.014 12.192 144.636 12.1493 146.598 12.064L149.734 12C149.82 12 149.862 12.128 149.862 12.384C149.862 12.64 149.82 12.768 149.734 12.768C148.454 12.768 147.516 12.896 146.918 13.152C146.321 13.408 145.916 13.8347 145.702 14.432C145.532 15.0293 145.425 15.9893 145.382 17.312V46.816C145.382 48.096 145.489 49.0347 145.702 49.632C145.958 50.2293 146.385 50.656 146.982 50.912C147.58 51.1253 148.497 51.232 149.734 51.232C149.82 51.232 149.862 51.36 149.862 51.616C149.862 51.872 149.82 52 149.734 52C148.412 52 147.345 51.9787 146.534 51.936L141.862 51.872L137.318 51.936C136.508 51.9787 135.398 52 133.99 52ZM137.702 8.608C137.532 8.608 137.404 8.52266 137.318 8.352C137.233 8.13866 137.254 7.98933 137.382 7.904C138.449 7.05066 139.857 5.70666 141.606 3.872C143.356 2.12266 144.23 1.248 144.23 1.248C144.444 1.03466 145.212 1.12 146.534 1.504C147.9 1.84533 149.116 2.272 150.182 2.784C151.292 3.25333 151.612 3.53067 151.142 3.616C146.577 4.81066 142.14 6.45333 137.83 8.544L137.702 8.608ZM180.672 52.768C175.424 52.768 171.114 51.744 167.744 49.696C164.373 47.648 161.941 45.0667 160.448 41.952C158.954 38.7947 158.208 35.4667 158.208 31.968C158.208 27.744 159.232 24.0747 161.28 20.96C163.37 17.8027 166.122 15.4133 169.536 13.792C172.992 12.128 176.725 11.296 180.736 11.296C182.698 11.296 184.746 11.488 186.88 11.872C189.013 12.2133 190.741 12.64 192.064 13.152C192.405 13.3653 192.618 13.5573 192.704 13.728C192.832 13.8987 192.896 14.1973 192.896 14.624L193.344 23.2C193.344 23.328 193.237 23.392 193.024 23.392C192.853 23.392 192.725 23.328 192.64 23.2C191.061 19.9573 189.034 17.4613 186.56 15.712C184.128 13.92 181.354 13.024 178.24 13.024C174.186 13.024 171.072 14.496 168.896 17.44C166.762 20.384 165.696 24.5227 165.696 29.856C165.696 33.696 166.357 37.28 167.68 40.608C169.045 43.936 170.88 46.5813 173.184 48.544C175.488 50.5067 178.026 51.488 180.8 51.488C185.194 51.488 189.29 48.2453 193.088 41.76C193.173 41.632 193.28 41.568 193.408 41.568C193.664 41.568 193.792 41.696 193.792 41.952L193.408 49.312C193.322 49.8667 193.237 50.2293 193.152 50.4C193.066 50.528 192.832 50.656 192.448 50.784C188.693 52.1067 184.768 52.768 180.672 52.768ZM243.121 51.232C243.206 51.232 243.249 51.36 243.249 51.616C243.249 51.872 243.206 52 243.121 52C241.926 52 240.945 51.9787 240.177 51.936L235.377 51.872L230.769 51.936C229.958 51.9787 228.849 52 227.441 52C227.355 52 227.291 51.872 227.249 51.616C227.249 51.36 227.313 51.232 227.441 51.232C228.763 51.232 229.702 51.1253 230.257 50.912C230.854 50.6987 231.238 50.2933 231.409 49.696C231.579 49.0987 231.665 48.1387 231.665 46.816V32.096H213.233V46.816C213.233 48.096 213.339 49.0347 213.553 49.632C213.809 50.2293 214.235 50.656 214.833 50.912C215.43 51.1253 216.369 51.232 217.649 51.232C217.777 51.232 217.841 51.36 217.841 51.616C217.841 51.872 217.777 52 217.649 52C216.241 52 215.153 51.9787 214.385 51.936L209.649 51.872L205.233 51.936C204.422 51.9787 203.355 52 202.033 52C201.905 52 201.841 51.872 201.841 51.616C201.841 51.36 201.905 51.232 202.033 51.232C203.313 51.232 204.23 51.1253 204.785 50.912C205.382 50.6987 205.766 50.2933 205.937 49.696C206.15 49.0987 206.257 48.1387 206.257 46.816V17.184C206.299 15.392 206.043 14.2187 205.489 13.664C204.934 13.0667 203.782 12.768 202.033 12.768C201.905 12.768 201.841 12.64 201.841 12.384C201.841 12.128 201.905 12 202.033 12L205.105 12.064C206.982 12.1493 208.497 12.192 209.649 12.192C210.801 12.192 212.358 12.1493 214.321 12.064L217.585 12C217.67 12 217.713 12.128 217.713 12.384C217.713 12.64 217.67 12.768 217.585 12.768C216.305 12.768 215.366 12.896 214.769 13.152C214.171 13.408 213.766 13.856 213.553 14.496C213.382 15.0933 213.275 16.032 213.233 17.312V30.304H231.601V17.312C231.601 15.4773 231.323 14.2613 230.769 13.664C230.257 13.0667 229.126 12.768 227.377 12.768C227.291 12.768 227.227 12.64 227.185 12.384C227.185 12.128 227.249 12 227.377 12L230.513 12.064C232.39 12.1493 233.926 12.192 235.121 12.192C236.273 12.192 237.787 12.1493 239.665 12.064L242.929 12C243.057 12 243.121 12.128 243.121 12.384C243.121 12.64 243.057 12.768 242.929 12.768C241.649 12.768 240.71 12.896 240.113 13.152C239.558 13.3653 239.174 13.7707 238.961 14.368C238.747 14.9653 238.598 15.904 238.513 17.184V46.816C238.513 48.0533 238.641 48.992 238.897 49.632C239.195 50.2293 239.665 50.656 240.305 50.912C240.945 51.1253 241.883 51.232 243.121 51.232ZM258.317 52C258.189 52 258.125 51.872 258.125 51.616C258.125 51.36 258.168 51.232 258.253 51.232C260.045 51.232 261.347 51.1253 262.157 50.912C263.011 50.6987 263.587 50.2933 263.885 49.696C264.184 49.056 264.333 48.096 264.333 46.816V17.184C264.376 15.6907 264.184 14.7093 263.757 14.24C263.331 13.728 262.52 13.472 261.325 13.472H260.493C259.043 13.472 257.613 13.9413 256.205 14.88C254.797 15.776 253.603 16.992 252.621 18.528C251.64 20.0213 251.043 21.664 250.829 23.456C250.829 23.5413 250.723 23.584 250.509 23.584C250.381 23.584 250.253 23.5627 250.125 23.52C250.04 23.4347 250.019 23.3707 250.061 23.328C250.275 21.7067 250.595 17.4613 251.021 10.592C251.021 10.464 251.128 10.4 251.341 10.4C251.469 10.4 251.576 10.4213 251.661 10.464C251.789 10.5067 251.853 10.5707 251.853 10.656C251.853 11.552 252.813 12 254.733 12C258.189 12.128 262.52 12.192 267.725 12.192C270.072 12.192 272.696 12.1493 275.597 12.064L280.077 12C281.485 12 282.509 11.8933 283.149 11.68C283.789 11.4667 284.195 11.04 284.365 10.4C284.451 10.272 284.6 10.2293 284.813 10.272C285.069 10.272 285.176 10.3573 285.133 10.528C285.005 12.4053 284.877 14.7733 284.749 17.632C284.621 20.448 284.579 22.3467 284.621 23.328C284.621 23.456 284.493 23.52 284.237 23.52C283.896 23.52 283.725 23.4347 283.725 23.264C283.725 21.5147 283.32 19.8933 282.509 18.4C281.741 16.9067 280.653 15.712 279.245 14.816C277.88 13.92 276.387 13.472 274.765 13.472H273.933C273.08 13.472 272.461 13.5787 272.077 13.792C271.736 14.0053 271.523 14.368 271.437 14.88C271.352 15.3493 271.288 16.16 271.245 17.312L271.309 46.816C271.309 48.1387 271.437 49.0987 271.693 49.696C271.992 50.2933 272.547 50.6987 273.357 50.912C274.168 51.1253 275.491 51.232 277.325 51.232C277.453 51.232 277.517 51.36 277.517 51.616C277.517 51.872 277.453 52 277.325 52C275.747 52 274.509 51.9787 273.613 51.936L267.789 51.872L262.285 51.936C261.347 51.9787 260.024 52 258.317 52Z" fill="#DCCA87"/>
</svg>
