<svg width="199" height="57" viewBox="0 0 199 57" fill="none" xmlns="http://www.w3.org/2000/svg">
<path d="M17.8647 43.528C14.6087 43.528 11.778 42.8973 9.3727 41.636C6.9967 40.3747 5.17804 38.644 3.9167 36.444C2.65537 34.2147 2.0247 31.7213 2.0247 28.964C2.0247 26.2947 2.7287 23.904 4.1367 21.792C5.5447 19.6507 7.46604 17.9933 9.9007 16.82C12.3354 15.6173 15.0487 15.016 18.0407 15.016C19.4194 15.016 20.8274 15.148 22.2647 15.412C23.702 15.6467 24.8314 15.94 25.6527 16.292C25.8874 16.4093 26.034 16.5267 26.0927 16.644C26.1514 16.7613 26.1954 16.9813 26.2247 17.304L26.5767 23.068C26.5767 23.1853 26.5034 23.2587 26.3567 23.288C26.21 23.3173 26.1074 23.288 26.0487 23.2C25.022 20.9707 23.6727 19.24 22.0007 18.008C20.3287 16.7467 18.3927 16.116 16.1927 16.116C13.3474 16.116 11.1327 17.128 9.54871 19.152C7.9647 21.1467 7.1727 23.8747 7.1727 27.336C7.1727 30.3573 7.7007 33.0267 8.7567 35.344C9.8127 37.6613 11.25 39.4507 13.0687 40.712C14.9167 41.9733 16.9994 42.604 19.3167 42.604C20.3727 42.604 21.1794 42.4573 21.7367 42.164C22.294 41.8413 22.6754 41.328 22.8807 40.624C23.1154 39.8907 23.2327 38.8347 23.2327 37.456C23.2327 36.0187 23.1007 34.9773 22.8367 34.332C22.5727 33.6867 22.0887 33.2613 21.3847 33.056C20.6807 32.8507 19.5514 32.748 17.9967 32.748C17.8207 32.748 17.7327 32.6307 17.7327 32.396C17.7327 32.308 17.7474 32.2347 17.7767 32.176C17.8354 32.088 17.894 32.044 17.9527 32.044C20.3874 32.1907 22.4114 32.264 24.0247 32.264C25.55 32.264 27.134 32.22 28.7767 32.132C28.894 32.132 28.9674 32.2347 28.9967 32.44C29.026 32.6453 28.982 32.748 28.8647 32.748C28.3954 32.7187 28.102 32.836 27.9847 33.1C27.8674 33.364 27.8087 33.9653 27.8087 34.904V37.896C27.8087 39.216 27.8527 40.14 27.9407 40.668C28.0287 41.196 28.0727 41.5627 28.0727 41.768C28.0727 41.944 28.0434 42.0613 27.9847 42.12C27.9554 42.1787 27.8527 42.2373 27.6767 42.296C23.922 43.1173 20.6514 43.528 17.8647 43.528ZM55.2468 36.004C55.3055 35.9453 55.3788 35.916 55.4668 35.916C55.5548 35.916 55.6428 35.9453 55.7308 36.004C55.8188 36.0333 55.8482 36.0627 55.8188 36.092C55.5255 37.9987 55.3788 40.0813 55.3788 42.34C55.3788 42.5747 55.3348 42.7507 55.2468 42.868C55.1588 42.956 54.9828 43 54.7188 43H34.6548C34.5375 43 34.4788 42.912 34.4788 42.736C34.4788 42.56 34.5228 42.472 34.6108 42.472C35.4908 42.472 36.1215 42.3987 36.5028 42.252C36.9135 42.1053 37.1775 41.8267 37.2948 41.416C37.4415 41.0053 37.5148 40.3453 37.5148 39.436V19.064C37.5148 18.184 37.4415 17.5387 37.2948 17.128C37.1482 16.7173 36.8695 16.4387 36.4588 16.292C36.0482 16.116 35.4322 16.028 34.6108 16.028C34.5228 16.028 34.4642 15.94 34.4348 15.764C34.4348 15.588 34.4642 15.5 34.5228 15.5H53.4868C53.7215 15.5 53.8388 15.632 53.8388 15.896L53.9268 21.704C53.9268 21.792 53.8388 21.836 53.6628 21.836C53.5162 21.836 53.4282 21.8067 53.3988 21.748C52.9002 20.1053 51.9908 18.8147 50.6708 17.876C49.3802 16.908 47.8402 16.424 46.0508 16.424H45.2148C44.3055 16.424 43.6455 16.4973 43.2348 16.644C42.8535 16.7613 42.6042 16.996 42.4868 17.348C42.3695 17.7 42.2962 18.2867 42.2668 19.108V28.084H47.7668C49.2628 28.084 50.3628 27.82 51.0668 27.292C51.7708 26.764 52.1228 25.9133 52.1228 24.74C52.1228 24.6227 52.2255 24.564 52.4308 24.564C52.6362 24.564 52.7388 24.6373 52.7388 24.784L52.6948 27.204C52.6655 27.556 52.6508 28.0547 52.6508 28.7C52.6508 29.6387 52.6655 30.3427 52.6948 30.812L52.7388 33.188C52.7388 33.3347 52.6508 33.408 52.4748 33.408C52.3868 33.408 52.2988 33.3933 52.2108 33.364C52.1522 33.3053 52.1228 33.2467 52.1228 33.188C52.1228 31.9267 51.7268 30.9733 50.9348 30.328C50.1722 29.6533 49.0868 29.316 47.6788 29.316H42.2668V39.26C42.2668 40.4333 42.4428 41.196 42.7948 41.548C43.1762 41.9 43.9535 42.076 45.1268 42.076H46.3588C48.2655 42.076 50.0108 41.5333 51.5948 40.448C53.1788 39.3333 54.3962 37.852 55.2468 36.004ZM90.0625 42.472C90.1505 42.472 90.1945 42.56 90.1945 42.736C90.2239 42.912 90.1799 43 90.0625 43H82.8465C82.1425 43 80.9105 41.8267 79.1505 39.48C77.4199 37.104 75.3225 33.54 72.8585 28.788C72.0372 28.9933 71.1279 29.096 70.1305 29.096C69.9839 29.096 69.7932 29.0667 69.5585 29.008V39.436C69.5292 40.2867 69.5879 40.932 69.7345 41.372C69.9105 41.7827 70.2039 42.076 70.6145 42.252C71.0545 42.3987 71.7145 42.472 72.5945 42.472C72.7119 42.472 72.7705 42.56 72.7705 42.736C72.7999 42.912 72.7559 43 72.6385 43C71.6412 43 70.8785 42.9853 70.3505 42.956L67.0945 42.912L63.7945 42.956C63.2079 42.9853 62.4159 43 61.4185 43C61.3012 43 61.2279 42.912 61.1985 42.736C61.1985 42.56 61.2572 42.472 61.3745 42.472C62.3425 42.472 63.0612 42.3987 63.5305 42.252C63.9999 42.076 64.3079 41.7827 64.4545 41.372C64.6305 40.932 64.7332 40.2867 64.7625 39.436V19.064C64.7625 18.184 64.6745 17.5387 64.4985 17.128C64.3519 16.7173 64.0585 16.4387 63.6185 16.292C63.1785 16.116 62.5039 16.028 61.5945 16.028C61.4772 16.028 61.4185 15.94 61.4185 15.764C61.4185 15.588 61.4772 15.5 61.5945 15.5L63.9265 15.544C65.2172 15.6027 66.2732 15.632 67.0945 15.632C68.0919 15.632 69.1772 15.5733 70.3505 15.456C71.2892 15.3973 71.9052 15.368 72.1985 15.368C75.1612 15.368 77.3759 15.852 78.8425 16.82C80.3385 17.788 81.0865 19.1373 81.0865 20.868C81.0865 22.1293 80.6612 23.3467 79.8105 24.52C78.9892 25.6933 77.8892 26.676 76.5105 27.468C78.7985 31.252 80.7345 34.2293 82.3185 36.4C83.9319 38.5413 85.3399 40.096 86.5425 41.064C87.7745 42.0027 88.9479 42.472 90.0625 42.472ZM69.5585 27.776C69.9105 27.864 70.3359 27.908 70.8345 27.908C72.7705 27.908 74.1345 27.4827 74.9265 26.632C75.7479 25.7813 76.1585 24.3587 76.1585 22.364C76.1585 20.2813 75.7479 18.756 74.9265 17.788C74.1345 16.7907 73.1519 16.292 71.9785 16.292C71.1865 16.292 70.6439 16.3507 70.3505 16.468C70.0572 16.556 69.8519 16.7907 69.7345 17.172C69.6465 17.524 69.5879 18.184 69.5585 19.152V27.776ZM93.6495 43C93.5909 43 93.5615 42.912 93.5615 42.736C93.5615 42.56 93.5909 42.472 93.6495 42.472C94.5589 42.472 95.2042 42.3987 95.5855 42.252C95.9962 42.1053 96.2749 41.8267 96.4215 41.416C96.5682 41.0053 96.6415 40.3453 96.6415 39.436V19.064C96.6415 18.2133 96.5535 17.5827 96.3775 17.172C96.2309 16.732 95.9522 16.4387 95.5415 16.292C95.1309 16.116 94.5002 16.028 93.6495 16.028C93.5909 16.028 93.5469 15.94 93.5175 15.764C93.5175 15.588 93.5615 15.5 93.6495 15.5L95.8495 15.544C97.1402 15.6027 98.1815 15.632 98.9735 15.632C99.8535 15.632 100.968 15.6027 102.318 15.544L104.474 15.5C104.532 15.5 104.562 15.588 104.562 15.764C104.562 15.94 104.532 16.028 104.474 16.028C103.594 16.028 102.948 16.116 102.538 16.292C102.127 16.468 101.848 16.7613 101.702 17.172C101.584 17.5827 101.511 18.2427 101.482 19.152V39.436C101.482 40.316 101.555 40.9613 101.702 41.372C101.878 41.7827 102.171 42.076 102.582 42.252C102.992 42.3987 103.623 42.472 104.474 42.472C104.532 42.472 104.562 42.56 104.562 42.736C104.562 42.912 104.532 43 104.474 43C103.564 43 102.831 42.9853 102.274 42.956L99.0615 42.912L95.9375 42.956C95.3802 42.9853 94.6175 43 93.6495 43ZM96.2015 13.168C96.0842 13.168 95.9962 13.1093 95.9375 12.992C95.8789 12.8453 95.8935 12.7427 95.9815 12.684C96.7149 12.0973 97.6829 11.1733 98.8855 9.912C100.088 8.70933 100.69 8.108 100.69 8.108C100.836 7.96133 101.364 8.02 102.274 8.284C103.212 8.51867 104.048 8.812 104.782 9.164C105.544 9.48667 105.764 9.67733 105.442 9.736C102.303 10.5573 99.2522 11.6867 96.2895 13.124L96.2015 13.168ZM125.743 43.528C122.135 43.528 119.172 42.824 116.855 41.416C114.538 40.008 112.866 38.2333 111.839 36.092C110.812 33.9213 110.299 31.6333 110.299 29.228C110.299 26.324 111.003 23.8013 112.411 21.66C113.848 19.4893 115.74 17.8467 118.087 16.732C120.463 15.588 123.03 15.016 125.787 15.016C127.136 15.016 128.544 15.148 130.011 15.412C131.478 15.6467 132.666 15.94 133.575 16.292C133.81 16.4387 133.956 16.5707 134.015 16.688C134.103 16.8053 134.147 17.0107 134.147 17.304L134.455 23.2C134.455 23.288 134.382 23.332 134.235 23.332C134.118 23.332 134.03 23.288 133.971 23.2C132.886 20.9707 131.492 19.2547 129.791 18.052C128.119 16.82 126.212 16.204 124.071 16.204C121.284 16.204 119.143 17.216 117.647 19.24C116.18 21.264 115.447 24.1093 115.447 27.776C115.447 30.416 115.902 32.88 116.811 35.168C117.75 37.456 119.011 39.2747 120.595 40.624C122.179 41.9733 123.924 42.648 125.831 42.648C128.852 42.648 131.668 40.4187 134.279 35.96C134.338 35.872 134.411 35.828 134.499 35.828C134.675 35.828 134.763 35.916 134.763 36.092L134.499 41.152C134.44 41.5333 134.382 41.7827 134.323 41.9C134.264 41.988 134.103 42.076 133.839 42.164C131.258 43.0733 128.559 43.528 125.743 43.528ZM168.677 42.472C168.735 42.472 168.765 42.56 168.765 42.736C168.765 42.912 168.735 43 168.677 43C167.855 43 167.181 42.9853 166.653 42.956L163.353 42.912L160.185 42.956C159.627 42.9853 158.865 43 157.897 43C157.838 43 157.794 42.912 157.765 42.736C157.765 42.56 157.809 42.472 157.897 42.472C158.806 42.472 159.451 42.3987 159.833 42.252C160.243 42.1053 160.507 41.8267 160.625 41.416C160.742 41.0053 160.801 40.3453 160.801 39.436V29.316H148.129V39.436C148.129 40.316 148.202 40.9613 148.349 41.372C148.525 41.7827 148.818 42.076 149.229 42.252C149.639 42.3987 150.285 42.472 151.165 42.472C151.253 42.472 151.297 42.56 151.297 42.736C151.297 42.912 151.253 43 151.165 43C150.197 43 149.449 42.9853 148.921 42.956L145.665 42.912L142.629 42.956C142.071 42.9853 141.338 43 140.429 43C140.341 43 140.297 42.912 140.297 42.736C140.297 42.56 140.341 42.472 140.429 42.472C141.309 42.472 141.939 42.3987 142.321 42.252C142.731 42.1053 142.995 41.8267 143.113 41.416C143.259 41.0053 143.333 40.3453 143.333 39.436V19.064C143.362 17.832 143.186 17.0253 142.805 16.644C142.423 16.2333 141.631 16.028 140.429 16.028C140.341 16.028 140.297 15.94 140.297 15.764C140.297 15.588 140.341 15.5 140.429 15.5L142.541 15.544C143.831 15.6027 144.873 15.632 145.665 15.632C146.457 15.632 147.527 15.6027 148.877 15.544L151.121 15.5C151.179 15.5 151.209 15.588 151.209 15.764C151.209 15.94 151.179 16.028 151.121 16.028C150.241 16.028 149.595 16.116 149.185 16.292C148.774 16.468 148.495 16.776 148.349 17.216C148.231 17.6267 148.158 18.272 148.129 19.152V28.084H160.757V19.152C160.757 17.8907 160.566 17.0547 160.185 16.644C159.833 16.2333 159.055 16.028 157.853 16.028C157.794 16.028 157.75 15.94 157.721 15.764C157.721 15.588 157.765 15.5 157.853 15.5L160.009 15.544C161.299 15.6027 162.355 15.632 163.177 15.632C163.969 15.632 165.01 15.6027 166.301 15.544L168.545 15.5C168.633 15.5 168.677 15.588 168.677 15.764C168.677 15.94 168.633 16.028 168.545 16.028C167.665 16.028 167.019 16.116 166.609 16.292C166.227 16.4387 165.963 16.7173 165.817 17.128C165.67 17.5387 165.567 18.184 165.509 19.064V39.436C165.509 40.2867 165.597 40.932 165.773 41.372C165.978 41.7827 166.301 42.076 166.741 42.252C167.181 42.3987 167.826 42.472 168.677 42.472ZM179.124 43C179.036 43 178.992 42.912 178.992 42.736C178.992 42.56 179.022 42.472 179.08 42.472C180.312 42.472 181.207 42.3987 181.764 42.252C182.351 42.1053 182.747 41.8267 182.952 41.416C183.158 40.976 183.26 40.316 183.26 39.436V19.064C183.29 18.0373 183.158 17.3627 182.864 17.04C182.571 16.688 182.014 16.512 181.192 16.512H180.62C179.623 16.512 178.64 16.8347 177.672 17.48C176.704 18.096 175.883 18.932 175.208 19.988C174.534 21.0147 174.123 22.144 173.976 23.376C173.976 23.4347 173.903 23.464 173.756 23.464C173.668 23.464 173.58 23.4493 173.492 23.42C173.434 23.3613 173.419 23.3173 173.448 23.288C173.595 22.1733 173.815 19.2547 174.108 14.532C174.108 14.444 174.182 14.4 174.328 14.4C174.416 14.4 174.49 14.4147 174.548 14.444C174.636 14.4733 174.68 14.5173 174.68 14.576C174.68 15.192 175.34 15.5 176.66 15.5C179.036 15.588 182.014 15.632 185.592 15.632C187.206 15.632 189.01 15.6027 191.004 15.544L194.084 15.5C195.052 15.5 195.756 15.4267 196.196 15.28C196.636 15.1333 196.915 14.84 197.032 14.4C197.091 14.312 197.194 14.2827 197.34 14.312C197.516 14.312 197.59 14.3707 197.56 14.488C197.472 15.7787 197.384 17.4067 197.296 19.372C197.208 21.308 197.179 22.6133 197.208 23.288C197.208 23.376 197.12 23.42 196.944 23.42C196.71 23.42 196.592 23.3613 196.592 23.244C196.592 22.0413 196.314 20.9267 195.756 19.9C195.228 18.8733 194.48 18.052 193.512 17.436C192.574 16.82 191.547 16.512 190.432 16.512H189.86C189.274 16.512 188.848 16.5853 188.584 16.732C188.35 16.8787 188.203 17.128 188.144 17.48C188.086 17.8027 188.042 18.36 188.012 19.152L188.056 39.436C188.056 40.3453 188.144 41.0053 188.32 41.416C188.526 41.8267 188.907 42.1053 189.464 42.252C190.022 42.3987 190.931 42.472 192.192 42.472C192.28 42.472 192.324 42.56 192.324 42.736C192.324 42.912 192.28 43 192.192 43C191.107 43 190.256 42.9853 189.64 42.956L185.636 42.912L181.852 42.956C181.207 42.9853 180.298 43 179.124 43Z" fill="white"/>
</svg>
