<svg width="53" height="41" viewBox="0 0 53 41" fill="none" xmlns="http://www.w3.org/2000/svg">
<path d="M14.5623 21.7143C17.2716 21.7143 19.4164 22.6165 20.9968 24.4211C22.6901 26.1128 23.5367 28.3684 23.5367 31.188C23.5367 34.2331 22.5208 36.6579 20.4888 38.4624C18.5698 40.1541 15.9169 41 12.5304 41C8.57934 41 5.47497 39.4774 3.21725 36.4323C1.07242 33.3872 0 29.0451 0 23.406C0 18.3308 1.12886 13.6504 3.38658 9.36466C5.6443 4.96616 9.03088 0.567665 13.5463 -3.83083C13.6592 -3.94361 13.8285 -4 14.0543 -4C14.393 -4 14.6752 -3.83083 14.901 -3.49249C15.1267 -3.15414 15.1267 -2.87218 14.901 -2.64662C9.36954 2.99248 6.60383 9.64661 6.60383 17.3158C6.60383 20.4737 7.16826 22.7857 8.29713 24.2519C9.3131 22.5602 11.4015 21.7143 14.5623 21.7143ZM44.0256 21.7143C46.7348 21.7143 48.8797 22.6165 50.4601 24.4211C52.1534 26.1128 53 28.3684 53 31.188C53 34.2331 51.984 36.6579 49.9521 38.4624C48.033 40.1541 45.3802 41 41.9936 41C38.0426 41 34.9382 39.4774 32.6805 36.4323C30.5357 33.3872 29.4633 29.0451 29.4633 23.406C29.4633 18.3308 30.5921 13.6504 32.8498 9.36466C35.1076 4.96616 38.4941 0.567665 43.0096 -3.83083C43.1225 -3.94361 43.2918 -4 43.5176 -4C43.8562 -4 44.1384 -3.83083 44.3642 -3.49249C44.59 -3.15414 44.59 -2.87218 44.3642 -2.64662C38.8328 2.99248 36.0671 9.64661 36.0671 17.3158C36.0671 20.4737 36.6315 22.7857 37.7604 24.2519C38.7764 22.5602 40.8647 21.7143 44.0256 21.7143Z" fill="#AAAAAA"/>
</svg>
