<svg width="428" height="255" viewBox="0 0 428 255" fill="none" xmlns="http://www.w3.org/2000/svg">
<path d="M118.391 212.692C118.781 212.692 118.976 213.277 118.976 214.446C118.976 215.615 118.781 216.2 118.391 216.2C112.542 216.2 107.96 216.103 104.645 215.908L85.0496 215.615L61.6522 215.908C57.7526 216.103 52.1957 216.2 44.9815 216.2C44.5916 216.2 44.3966 215.615 44.3966 214.446C44.3966 213.277 44.5916 212.692 44.9815 212.692C52.9757 212.692 58.5326 212.303 61.6522 211.523C64.9668 210.549 67.2091 208.795 68.379 206.262C69.5488 203.533 70.1338 198.954 70.1338 192.523V163C45.5665 162.61 23.0465 162.415 2.57372 162.415C1.59882 162.415 0.81891 162.123 0.233974 161.538C-0.155983 160.759 -0.0584936 159.979 0.526442 159.2L96.4559 32.0461C96.8458 31.6564 97.4308 31.4615 98.2107 31.4615C98.7956 31.4615 99.3806 31.6564 99.9655 32.0461C100.55 32.241 100.843 32.6308 100.843 33.2154V152.769L118.391 152.185C119.171 152.185 119.561 154.231 119.561 158.323C119.561 162.415 119.171 164.462 118.391 164.462L100.843 163.585V192.523C100.843 198.564 101.233 202.949 102.013 205.677C102.988 208.405 104.645 210.256 106.985 211.231C109.324 212.205 113.127 212.692 118.391 212.692ZM19.5368 153.938C43.7142 153.938 60.5798 153.841 70.1338 153.646V81.1539L18.0745 151.892C16.9046 153.256 17.3921 153.938 19.5368 153.938Z" fill="#DCCA87"/>
<path d="M219.77 220C200.272 220 184.966 211.621 173.852 194.862C162.739 177.908 157.182 154.523 157.182 124.708C157.182 94.8923 162.739 71.7026 173.852 55.1385C184.966 38.3795 200.467 30 220.355 30C239.658 30 254.671 38.4769 265.395 55.4308C276.314 72.1897 281.773 95.5744 281.773 125.585C281.773 155.205 276.314 178.395 265.395 195.154C254.476 211.718 239.268 220 219.77 220ZM223.279 213.862C231.859 213.862 238 207.333 241.705 194.277C245.41 181.221 247.262 159.492 247.262 129.092C247.262 106.682 246.189 88.7538 244.045 75.3077C242.095 61.8615 238.878 52.0205 234.393 45.7846C230.104 39.3538 224.352 36.1385 217.138 36.1385C207.974 36.1385 201.344 42.8615 197.25 56.3077C193.35 69.559 191.4 91.6769 191.4 122.662C191.4 155.205 193.838 178.59 198.712 192.815C203.782 206.846 211.971 213.862 223.279 213.862Z" fill="#DCCA87"/>
<path d="M426.83 212.692C427.22 212.692 427.415 213.277 427.415 214.446C427.415 215.615 427.22 216.2 426.83 216.2C420.981 216.2 416.399 216.103 413.084 215.908L393.489 215.615L370.091 215.908C366.192 216.103 360.635 216.2 353.421 216.2C353.031 216.2 352.836 215.615 352.836 214.446C352.836 213.277 353.031 212.692 353.421 212.692C361.415 212.692 366.972 212.303 370.091 211.523C373.406 210.549 375.648 208.795 376.818 206.262C377.988 203.533 378.573 198.954 378.573 192.523V163C354.006 162.61 331.486 162.415 311.013 162.415C310.038 162.415 309.258 162.123 308.673 161.538C308.283 160.759 308.381 159.979 308.966 159.2L404.895 32.0461C405.285 31.6564 405.87 31.4615 406.65 31.4615C407.235 31.4615 407.82 31.6564 408.405 32.0461C408.99 32.241 409.282 32.6308 409.282 33.2154V152.769L426.83 152.185C427.61 152.185 428 154.231 428 158.323C428 162.415 427.61 164.462 426.83 164.462L409.282 163.585V192.523C409.282 198.564 409.672 202.949 410.452 205.677C411.427 208.405 413.084 210.256 415.424 211.231C417.764 212.205 421.566 212.692 426.83 212.692ZM327.976 153.938C352.153 153.938 369.019 153.841 378.573 153.646V81.1539L326.514 151.892C325.344 153.256 325.831 153.938 327.976 153.938Z" fill="#DCCA87"/>
<path d="M241.003 255C248.17 255 254 250.738 254 245.5C254 240.262 248.17 236 241.003 236C234.224 236 228.644 239.813 228.06 244.659H218.706V242.661H174V248.338H218.706V246.34H228.06C228.645 251.186 234.224 255 241.003 255ZM216.98 246.658H175.727V244.342H216.98V246.658ZM229.732 245.5C229.732 241.189 234.789 237.681 241.003 237.681C247.218 237.681 252.274 241.189 252.274 245.5C252.274 249.811 247.218 253.319 241.003 253.319C234.789 253.319 229.732 249.811 229.732 245.5Z" fill="white"/>
</svg>
