<svg width="77" height="38" viewBox="0 0 77 38" fill="none" xmlns="http://www.w3.org/2000/svg">
<path d="M63.575 37.4131C70.0107 37.4929 75.4894 33.9402 75.7884 29.4934C76.0874 25.0467 71.0952 21.3643 64.6596 21.2844C58.5723 21.2089 53.3437 24.3839 52.5425 28.491L44.1424 28.3868L44.2565 26.6905L4.11103 26.1925L3.78695 31.0119L43.9326 31.5098L44.0467 29.8137L52.4468 29.9178C52.6948 34.0381 57.4878 37.3376 63.575 37.4131ZM42.4783 30.064L5.43334 29.6045L5.56551 27.639L42.6105 28.0984L42.4783 30.064ZM53.9963 29.2232C54.2424 25.5634 58.9831 22.6424 64.5639 22.7117C70.1446 22.7809 74.4849 25.8145 74.2388 29.4742C73.9927 33.1341 69.252 36.0553 63.6712 35.9861C58.0905 35.9169 53.7502 32.8831 53.9963 29.2232Z" fill="#DCCA87"/>
<path d="M12.6384 0.501889C6.20284 0.390021 1.11285 3.92221 1.2916 8.37572C1.47034 12.8292 6.85116 16.5432 13.2867 16.6551C19.374 16.7609 24.2548 13.6059 24.614 9.49523L33.0141 9.64125L33.0823 11.3402L73.2275 12.038L73.0338 7.21134L32.8883 6.5135L32.9565 8.21225L24.5565 8.06623C23.8665 3.93708 18.7257 0.607702 12.6384 0.501889ZM34.4959 7.96924L71.5407 8.61318L71.6197 10.5817L34.5749 9.93775L34.4959 7.96924ZM23.0836 8.75453C23.2307 12.4198 18.8099 15.3227 13.2292 15.2257C7.64845 15.1287 2.98829 12.0679 2.84119 8.40266C2.69407 4.73718 7.11486 1.83407 12.6956 1.93108C18.2763 2.02809 22.9365 5.08905 23.0836 8.75453Z" fill="#DCCA87"/>
</svg>
