<svg width="25" height="24" viewBox="0 0 25 24" fill="none" xmlns="http://www.w3.org/2000/svg">
<path d="M23.4912 3.95021C23.4913 3.77357 23.4447 3.60007 23.3559 3.44735C23.2671 3.29464 23.1395 3.16817 22.986 3.08084C22.8324 2.9935 22.6585 2.94842 22.4819 2.95017C22.3053 2.95193 22.1323 3.00046 21.9805 3.09083C21.3952 3.43921 20.765 3.70601 20.1075 3.88383C19.1685 3.07806 17.9708 2.63713 16.7335 2.64164C15.3761 2.6432 14.0724 3.17223 13.0977 4.11702C12.123 5.06181 11.5537 6.3484 11.5099 7.70512C8.83384 7.27838 6.40849 5.88164 4.69631 3.78126C4.59315 3.65609 4.4614 3.55757 4.31217 3.494C4.16295 3.43043 4.00062 3.40368 3.83889 3.41601C3.67725 3.42932 3.52128 3.4818 3.38448 3.56892C3.24768 3.65603 3.13416 3.77516 3.05373 3.91601C2.64126 4.63582 2.40436 5.44276 2.36228 6.27131C2.3202 7.09986 2.47412 7.92666 2.81154 8.68456L2.80959 8.68651C2.65794 8.77991 2.53278 8.91066 2.44609 9.06625C2.35941 9.22185 2.31409 9.39708 2.31447 9.57519C2.31263 9.72211 2.32145 9.86898 2.34084 10.0146C2.44298 11.2729 3.00062 12.4507 3.9092 13.3271C3.84756 13.4446 3.80994 13.5731 3.79854 13.7052C3.78714 13.8373 3.80218 13.9704 3.84279 14.0967C4.2389 15.3308 5.08129 16.3727 6.2051 17.0185C5.06334 17.46 3.83052 17.614 2.61525 17.4668C2.39032 17.4386 2.16248 17.4876 1.9691 17.6059C1.77572 17.7242 1.62828 17.9047 1.55097 18.1178C1.47365 18.3309 1.47106 18.5639 1.54361 18.7787C1.61616 18.9935 1.75955 19.1772 1.95025 19.2998C4.04034 20.646 6.47393 21.3617 8.96002 21.3613C11.7793 21.393 14.53 20.4921 16.7843 18.7988C19.0385 17.1054 20.67 14.7145 21.4248 11.998C21.7779 10.8146 21.9582 9.58648 21.96 8.35157C21.96 8.28614 21.96 8.21876 21.959 8.15138C22.4811 7.58831 22.8856 6.92668 23.1487 6.20527C23.4118 5.48387 23.5283 4.7172 23.4912 3.95021ZM20.1846 7.16212C20.0194 7.35746 19.9358 7.60891 19.9512 7.86427C19.961 8.02927 19.96 8.19527 19.96 8.35157C19.9579 9.39511 19.805 10.4329 19.5059 11.4326C18.8894 13.744 17.515 15.7817 15.603 17.2192C13.6909 18.6568 11.3517 19.4111 8.96002 19.3613C8.1009 19.3616 7.24474 19.2606 6.40924 19.0606C7.47465 18.7172 8.47083 18.1879 9.35162 17.4971C9.51385 17.3693 9.63257 17.1945 9.69151 16.9967C9.75044 16.7988 9.7467 16.5875 9.68079 16.3918C9.61489 16.1961 9.49005 16.0257 9.3234 15.9038C9.15675 15.7819 8.95647 15.7145 8.75002 15.7109C7.91885 15.698 7.12515 15.363 6.53615 14.7764C6.68557 14.7481 6.83401 14.7129 6.98147 14.6709C7.19748 14.6094 7.38651 14.477 7.51813 14.295C7.64975 14.1131 7.71629 13.8921 7.70704 13.6677C7.6978 13.4433 7.6133 13.2285 7.46715 13.058C7.32101 12.8874 7.12173 12.7711 6.90139 12.7275C6.41893 12.6323 5.96494 12.427 5.5747 12.1277C5.18447 11.8284 4.86852 11.4432 4.65139 11.002C4.83212 11.0266 5.014 11.0419 5.19631 11.0479C5.41289 11.0511 5.6249 10.9854 5.80169 10.8603C5.97847 10.7351 6.11086 10.5569 6.17971 10.3516C6.24569 10.1443 6.24229 9.92123 6.17004 9.7161C6.09778 9.51096 5.96061 9.33499 5.77932 9.21485C5.33947 8.92182 4.97916 8.52427 4.73068 8.0578C4.48219 7.59134 4.35328 7.07052 4.35549 6.54201C4.35549 6.47561 4.35744 6.4092 4.36135 6.34377C6.60261 8.43402 9.50967 9.66621 12.5703 9.82326C12.7248 9.82934 12.8787 9.80024 13.0203 9.73816C13.1619 9.67607 13.2875 9.58262 13.3877 9.46486C13.4869 9.34596 13.5571 9.20566 13.5929 9.05501C13.6286 8.90437 13.6289 8.74748 13.5937 8.5967C13.5366 8.35806 13.5074 8.11357 13.5068 7.86818C13.5077 7.01271 13.848 6.19254 14.4529 5.58764C15.0578 4.98274 15.878 4.64251 16.7334 4.64161C17.1736 4.64043 17.6092 4.7305 18.0127 4.90615C18.4163 5.0818 18.7791 5.3392 19.0781 5.66212C19.1935 5.7862 19.3386 5.87871 19.4998 5.93085C19.661 5.98299 19.8329 5.99303 19.999 5.96001C20.4098 5.88006 20.8147 5.7724 21.2109 5.63775C20.9407 6.19072 20.5953 6.70369 20.1846 7.16212Z" fill="#F5EFDB"/>
</svg>
