<svg width="1896" height="1080" viewBox="0 0 1896 1080" fill="none" xmlns="http://www.w3.org/2000/svg">
<path opacity="0.2" d="M3031 -780C2598.17 -764.167 1678.6 -561.7 1463 121.5C1247.4 804.7 1957.83 1542.5 2340 1826C2751.17 2097.33 3326.8 3202.5 2340 5452.5C1106.5 8265 1272.5 8479.5 2340 9911.5L3133.5 10940.5C2866.83 10975.8 2359.1 11245.9 2461.5 12043.5C2563.9 12841.1 1466.83 13765.5 905.5 14128" stroke="#ABABAB" stroke-width="2"/>
<path opacity="0.2" d="M1 -689.5C433.833 -673.667 1353.4 -471.2 1569 212C1784.6 895.2 1074.17 1633 692 1916.5C280.833 2187.83 -294.8 3293 692 5543C1925.5 8355.5 1759.5 8570 692 10002" stroke="#ABABAB" stroke-width="2"/>
</svg>
